<svg width="24" height="24" viewBox="0 0 24 24" fill="none" xmlns="http://www.w3.org/2000/svg">
          <path d="M6.53906 8.47656C6.38281 8.32031 6.20312 8.24219 6 8.24219C5.79688 8.24219 5.61719 8.32031 5.46094 8.47656C5.32031 8.61719 5.25 8.79688 5.25 9.01562C5.25 9.21875 5.32031 9.39062 5.46094 9.53125L11.4609 15.5312C11.6172 15.6719 11.7969 15.7422 12 15.7422C12.2031 15.7422 12.3828 15.6719 12.5391 15.5312L18.5391 9.53125C18.6797 9.39062 18.75 9.21875 18.75 9.01562C18.75 8.79688 18.6797 8.61719 18.5391 8.47656C18.3828 8.32031 18.2031 8.24219 18 8.24219C17.7969 8.24219 17.6172 8.32031 17.4609 8.47656L12 13.9375L6.53906 8.47656Z" fill="#A0A2A7"/>
</svg>