<svg width="24" height="24" viewBox="0 0 24 24" fill="none" xmlns="http://www.w3.org/2000/svg">
        <path d="M16.2422 7.75C16.1016 7.60938 15.9219 7.53906 15.7031 7.53906C15.5 7.53906 15.3281 7.60938 15.1875 7.75L12 10.9375L8.8125 7.75C8.67188 7.60938 8.49219 7.53906 8.27344 7.53906C8.07031 7.53906 7.89844 7.60938 7.75781 7.75C7.61719 7.90625 7.54688 8.08594 7.54688 8.28906C7.54688 8.49219 7.61719 8.67188 7.75781 8.82812L10.9453 11.9922L7.75781 15.1797C7.61719 15.3203 7.54688 15.5 7.54688 15.7188C7.54688 15.9219 7.61719 16.0938 7.75781 16.2344C7.89844 16.3906 8.07031 16.4688 8.27344 16.4688C8.49219 16.4688 8.67188 16.3906 8.8125 16.2344L12 13.0703L15.1875 16.2344C15.3281 16.3906 15.5 16.4688 15.7031 16.4688C15.9219 16.4688 16.1016 16.3906 16.2422 16.2344C16.3828 16.0938 16.4531 15.9219 16.4531 15.7188C16.4531 15.5 16.3828 15.3203 16.2422 15.1797L13.0547 11.9922L16.2422 8.82812C16.3828 8.67188 16.4531 8.49219 16.4531 8.28906C16.4531 8.08594 16.3828 7.90625 16.2422 7.75Z" fill="#A0A2A7"/>
 </svg>

